<svg 
 xmlns="http://www.w3.org/2000/svg"
 xmlns:xlink="http://www.w3.org/1999/xlink"
 width="16px" height="16px">
<path fill-rule="evenodd"  fill="rgb(102, 102, 102)"
 d="M8.000,0.497 C12.193,0.497 15.503,3.807 15.503,8.000 C15.503,12.193 12.193,15.503 8.000,15.503 C3.807,15.503 0.497,12.193 0.497,8.000 C0.497,3.807 3.807,0.497 8.000,0.497 ZM3.873,7.669 C3.917,6.720 4.182,5.528 4.623,4.336 C3.961,4.050 3.365,3.741 2.902,3.410 C1.887,4.535 1.269,6.014 1.202,7.669 L3.873,7.669 ZM1.202,8.331 C1.269,9.986 1.887,11.465 2.902,12.590 C3.365,12.259 3.961,11.950 4.623,11.664 C4.160,10.472 3.895,9.258 3.873,8.331 L1.202,8.331 ZM6.102,1.445 C5.065,1.710 4.137,2.240 3.365,2.946 C3.762,3.233 4.270,3.520 4.844,3.763 C5.175,2.924 5.616,2.108 6.102,1.445 ZM3.365,13.054 C4.137,13.760 5.065,14.290 6.102,14.532 C5.594,13.848 5.175,13.054 4.866,12.215 C4.292,12.458 3.785,12.745 3.365,13.054 ZM7.669,5.175 C6.918,5.131 6.058,4.910 5.219,4.557 C4.822,5.595 4.579,6.632 4.535,7.669 L7.669,7.669 L7.669,5.175 ZM4.535,8.331 C4.579,9.324 4.822,10.384 5.219,11.443 C6.058,11.090 6.918,10.869 7.669,10.825 L7.669,8.331 L4.535,8.331 ZM7.669,1.181 C7.448,1.181 7.227,1.203 6.984,1.247 C6.389,2.063 5.837,2.990 5.418,4.005 C6.146,4.270 6.941,4.447 7.669,4.491 L7.669,1.181 ZM7.669,11.509 C6.963,11.553 6.190,11.708 5.440,11.972 C5.837,12.965 6.367,13.937 6.984,14.753 C7.227,14.797 7.448,14.819 7.669,14.819 L7.669,11.509 ZM8.331,4.491 C9.059,4.447 9.853,4.270 10.582,4.005 C10.163,2.990 9.611,2.063 9.015,1.247 C8.773,1.203 8.552,1.181 8.331,1.181 L8.331,4.491 ZM8.331,7.669 L11.465,7.669 C11.421,6.632 11.178,5.595 10.780,4.557 C9.942,4.910 9.081,5.131 8.331,5.175 L8.331,7.669 ZM8.331,8.331 L8.331,10.825 C9.081,10.869 9.942,11.090 10.780,11.443 C11.178,10.384 11.421,9.324 11.465,8.331 L8.331,8.331 ZM8.331,14.819 C8.552,14.819 8.773,14.797 9.015,14.753 C9.633,13.937 10.163,12.965 10.560,11.972 C9.810,11.708 9.037,11.553 8.331,11.509 L8.331,14.819 ZM12.634,2.946 C11.862,2.240 10.935,1.710 9.898,1.445 C10.384,2.108 10.825,2.924 11.155,3.763 C11.729,3.520 12.237,3.233 12.634,2.946 ZM9.898,14.532 C10.935,14.290 11.862,13.760 12.634,13.054 C12.215,12.745 11.708,12.458 11.134,12.215 C10.825,13.054 10.405,13.848 9.898,14.532 ZM14.797,7.669 C14.731,6.014 14.113,4.535 13.098,3.410 C12.634,3.741 12.038,4.050 11.376,4.336 C11.817,5.528 12.083,6.720 12.127,7.669 L14.797,7.669 ZM12.127,8.331 C12.104,9.258 11.840,10.472 11.376,11.664 C12.038,11.950 12.634,12.259 13.098,12.590 C14.113,11.465 14.731,9.986 14.797,8.331 L12.127,8.331 Z"/>
</svg>